<svg width="532" height="317" xmlns="http://www.w3.org/2000/svg"><g fill="none" fill-rule="evenodd"><rect x="1" y="1" width="132" height="76" rx="38" stroke="#4A4A4A" stroke-width="2"/><text font-family="Chalkboard-Bold, Chalkboard" font-size="14" font-weight="bold" fill="#000"><tspan x="44.159" y="35">Object</tspan> <tspan x="35.496" y="57">prototype</tspan></text><rect x="1" y="1" width="132" height="76" rx="38" stroke="#4A4A4A" stroke-width="2" transform="translate(390)"/><text font-family="Chalkboard-Bold, Chalkboard" font-size="14" font-weight="bold" fill="#000" transform="translate(390)"><tspan x="55.955" y="35">Cat</tspan> <tspan x="29.386" y="57">constructor</tspan></text><rect x="1" y="1" width="132" height="76" rx="38" stroke="#4A4A4A" stroke-width="2" transform="translate(195)"/><text font-family="Chalkboard-Bold, Chalkboard" font-size="14" font-weight="bold" fill="#000" transform="translate(195)"><tspan x="39.534" y="35">Function</tspan> <tspan x="35.496" y="57">prototype</tspan></text><g stroke="#7ED321"><path d="M191 39.5h-45" stroke-width="2" stroke-linecap="square"/><path fill="#7ED321" d="M137 39l10-4v8z"/></g><g stroke="#7ED321"><path d="M384 39.5h-48.5" stroke-width="2" stroke-linecap="square"/><path fill="#7ED321" d="M333 39l10-4v8z"/></g><rect x="1" y="1" width="132" height="76" rx="38" stroke="#4A4A4A" stroke-width="2" transform="translate(398 179)"/><text font-family="Chalkboard-Bold, Chalkboard" font-size="14" font-weight="bold" fill="#000" transform="translate(398 179)"><tspan x="55.955" y="35">Cat</tspan> <tspan x="35.496" y="57">prototype</tspan></text><rect x="1" y="1" width="132" height="76" rx="38" stroke="#4A4A4A" stroke-width="2" transform="translate(199 112)"/><text font-family="Chalkboard-Bold, Chalkboard" font-size="14" font-weight="bold" fill="#000" transform="translate(199 112)"><tspan x="36.741" y="43">kangkang</tspan></text><rect x="1" y="1" width="132" height="76" rx="38" stroke="#4A4A4A" stroke-width="2" transform="translate(199 239)"/><text font-family="Chalkboard-Bold, Chalkboard" font-size="14" font-weight="bold" fill="#000" transform="translate(199 239)"><tspan x="44.636" y="43">paopao</tspan></text><g stroke="#7ED321"><path d="M338 162l56 35" stroke-width="2" stroke-linecap="square"/><path fill="#7ED321" d="M398.59 199.898l-10.566-2.092 4.357-6.709z"/></g><g stroke="#7ED321"><path d="M339 277l53-39" stroke-width="2" stroke-linecap="square"/><path fill="#7ED321" d="M397.336 234.097l-5.417 9.308-4.925-6.304z"/></g><g stroke="#F5A623"><path d="M486.5 82.5V174" stroke-width="2" stroke-linecap="square"/><path fill="#F5A623" d="M486.5 81l4.5 9h-9z"/></g><g stroke="#4A90E2"><path d="M426.5 80.5V167" stroke-width="2" stroke-linecap="square"/><path fill="#4A90E2" d="M426.5 176l4.5-9h-9z"/></g><g stroke="#7ED321"><path fill="#7ED321" d="M118.603 74.25l10.044.603-4.5 7.794z"/><path d="M413.61 180.957c-34.274-54.365-84.75-81.547-151.426-81.547-66.677 0-112.256-6.98-136.735-20.941" stroke-width="2" stroke-linecap="square"/></g></g></svg>