<svg width="512" height="405" xmlns="http://www.w3.org/2000/svg"><g fill="none" fill-rule="evenodd"><rect x="1" y="1" width="132" height="76" rx="38" stroke="#4A4A4A" stroke-width="2" transform="translate(189)"/><text font-family="Chalkboard-Bold, Chalkboard" font-size="14" font-weight="bold" fill="#000" transform="translate(189)"><tspan x="44.159" y="35">Object</tspan> <tspan x="35.496" y="57">prototype</tspan></text><rect x="1" y="1" width="132" height="76" rx="38" stroke="#4A4A4A" stroke-width="2" transform="translate(189 166)"/><text font-family="Chalkboard-Bold, Chalkboard" font-size="14" font-weight="bold" fill="#000" transform="translate(189 166)"><tspan x="39.534" y="35">Function</tspan> <tspan x="35.496" y="57">prototype</tspan></text><g stroke="#7ED321"><path d="M259 162v-38-38" stroke-width="2" stroke-linecap="square"/><path fill="#7ED321" d="M258.785 81.01l4 10h-8z"/></g><rect x="1" y="1" width="132" height="76" rx="38" stroke="#4A4A4A" stroke-width="2" transform="translate(378 166)"/><text font-family="Chalkboard-Bold, Chalkboard" font-size="14" font-weight="bold" fill="#000" transform="translate(378 166)"><tspan x="48.32" y="35">Array</tspan> <tspan x="35.496" y="57">prototype</tspan></text><rect x="1" y="1" width="132" height="76" rx="38" stroke="#4A4A4A" stroke-width="2" transform="translate(0 166)"/><text font-family="Chalkboard-Bold, Chalkboard" font-size="14" font-weight="bold" fill="#000" transform="translate(0 166)"><tspan x="52.118" y="35">Date</tspan> <tspan x="35.496" y="57">prototype</tspan></text><text font-family="Chalkboard-Bold, Chalkboard" font-size="14" font-weight="bold" fill="#000"><tspan x="150.333" y="209">. . .</tspan></text><text font-family="Chalkboard-Bold, Chalkboard" font-size="14" font-weight="bold" fill="#000"><tspan x="341.333" y="209">. . .</tspan></text><g stroke="#7ED321"><path fill="#7ED321" d="M188.774 62.72l-4.923 9.58-5.249-6.039z"/><path d="M70 161l112-92" stroke-width="2" stroke-linecap="square"/></g><g stroke="#7ED321"><path fill="#7ED321" d="M319.226 64.72l10.172 3.541-5.249 6.038z"/><path d="M431 160L327 71" stroke-width="2" stroke-linecap="square"/></g><rect x="1" y="1" width="132" height="76" rx="38" stroke="#4A4A4A" stroke-width="2" transform="translate(378 326)"/><text font-family="Chalkboard-Bold, Chalkboard" font-size="14" font-weight="bold" fill="#000" transform="translate(378 326)"><tspan x="48.32" y="35">Array</tspan> <tspan x="29.386" y="57">constructor</tspan></text><g><rect x="1" y="1" width="132" height="76" rx="38" stroke="#4A4A4A" stroke-width="2" transform="translate(0 327)"/><text font-family="Chalkboard-Bold, Chalkboard" font-size="14" font-weight="bold" fill="#000" transform="translate(0 327)"><tspan x="52.118" y="35">Date</tspan> <tspan x="29.386" y="57">constructor</tspan></text></g><g><rect x="1" y="1" width="132" height="76" rx="38" stroke="#4A4A4A" stroke-width="2" transform="translate(189 326)"/><text font-family="Chalkboard-Bold, Chalkboard" font-size="14" font-weight="bold" fill="#000" transform="translate(189 326)"><tspan x="39.534" y="35">Function</tspan> <tspan x="29.386" y="57">constructor</tspan></text></g><g stroke="#4A90E2"><path d="M220.5 320v-72" stroke-width="2" stroke-linecap="square"/><path fill="#4A90E2" d="M220.5 246l3.5 9h-7z"/></g><g stroke="#4A90E2"><path d="M35.5 320v-71" stroke-width="2" stroke-linecap="square"/><path fill="#4A90E2" d="M35.5 248l3.5 9h-7z"/></g><g stroke="#F5A623"><path d="M102.5 318v-69" stroke-width="2" stroke-linecap="square"/><path fill="#F5A623" d="M102.5 322l3.5-9h-7z"/></g><g stroke="#F5A623"><path d="M284.5 315v-67" stroke-width="2" stroke-linecap="square"/><path fill="#F5A623" d="M284.5 322l3.5-9h-7z"/></g><g stroke="#F5A623"><path d="M480.5 317v-67" stroke-width="2" stroke-linecap="square"/><path fill="#F5A623" d="M480.5 321l3.5-9h-7z"/></g><g stroke="#4A90E2"><path d="M416.5 319v-65" stroke-width="2" stroke-linecap="square"/><path fill="#4A90E2" d="M416.5 247l3.5 9h-7z"/></g><g stroke="#7ED321"><path fill="#7ED321" d="M199.71 238.057l-3.047 10.148L191 244.09z"/><path d="M126 330l72-89" stroke-width="2" stroke-linecap="square"/></g><g stroke="#7ED321"><path d="M380 338l-62-102" stroke-width="2" stroke-linecap="square"/><path fill="#7ED321" d="M316.07 233.943l8.494 6.333-5.803 3.915z"/></g><path d="M252.5 320v-73" stroke="#7ED321" stroke-width="2" stroke-linecap="square"/><path stroke="#7ED321" fill="#7ED321" d="M252.5 246l3.5 10h-7z"/></g></svg>