<svg width="512" height="244" xmlns="http://www.w3.org/2000/svg"><g fill="none" fill-rule="evenodd"><rect x="1" y="1" width="132" height="76" rx="38" stroke="#4A4A4A" stroke-width="2" transform="translate(189)"/><text font-family="Chalkboard-Bold, Chalkboard" font-size="14" font-weight="bold" fill="#000" transform="translate(189)"><tspan x="44.159" y="35">Object</tspan> <tspan x="35.496" y="57">prototype</tspan></text><rect x="1" y="1" width="132" height="76" rx="38" stroke="#4A4A4A" stroke-width="2" transform="translate(189 166)"/><text font-family="Chalkboard-Bold, Chalkboard" font-size="14" font-weight="bold" fill="#000" transform="translate(189 166)"><tspan x="39.534" y="35">Function</tspan> <tspan x="35.496" y="57">prototype</tspan></text><g stroke="#7ED321"><path d="M259 162v-38-38" stroke-width="2" stroke-linecap="square"/><path fill="#7ED321" d="M258.785 81.01l4 10h-8z"/></g><rect x="1" y="1" width="132" height="76" rx="38" stroke="#4A4A4A" stroke-width="2" transform="translate(378 166)"/><text font-family="Chalkboard-Bold, Chalkboard" font-size="14" font-weight="bold" fill="#000" transform="translate(378 166)"><tspan x="48.32" y="35">Array</tspan> <tspan x="35.496" y="57">prototype</tspan></text><rect x="1" y="1" width="132" height="76" rx="38" stroke="#4A4A4A" stroke-width="2" transform="translate(0 166)"/><text font-family="Chalkboard-Bold, Chalkboard" font-size="14" font-weight="bold" fill="#000" transform="translate(0 166)"><tspan x="52.118" y="35">Date</tspan> <tspan x="35.496" y="57">prototype</tspan></text><text font-family="Chalkboard-Bold, Chalkboard" font-size="14" font-weight="bold" fill="#000"><tspan x="150.333" y="209">. . .</tspan></text><text font-family="Chalkboard-Bold, Chalkboard" font-size="14" font-weight="bold" fill="#000"><tspan x="341.333" y="209">. . .</tspan></text><g stroke="#7ED321"><path fill="#7ED321" d="M188.774 62.72l-4.923 9.58-5.249-6.039z"/><path d="M70 161l112-92" stroke-width="2" stroke-linecap="square"/></g><g stroke="#7ED321"><path fill="#7ED321" d="M319.226 64.72l10.172 3.541-5.249 6.038z"/><path d="M431 160L327 71" stroke-width="2" stroke-linecap="square"/></g></g></svg>